M48
INCH
T01C0.0150
T02C0.1181
T03C0.0400
T04C0.0320
T05C0.0350
T06C0.0300
T07C0.0500
%
T01
X-009842Y+009645
X+012950Y+009600
X+008150Y+009400
X+005600Y+010200
X+009200Y+013400
X-004450Y+010550
X-010236Y+000787
X+002750Y+003900
T02
X+018098Y+002996
X+018094Y-018267
X-018125Y-018263
X-018122Y+002992
T03
X-015354Y+003149
X-014354Y+003149
X-013354Y+003149
X-012354Y+003149
X-011354Y+003149
X-010354Y+003149
X-009354Y+003149
X-008354Y+003149
X-007354Y+003149
X-006354Y+003149
X-005354Y+003149
X-004354Y+003149
X-003354Y+003149
X-002354Y+003149
X-001354Y+003149
X-000354Y+003149
X+004650Y+015500
X+004650Y+014500
X+013050Y+017400
X+014050Y+017400
X+015050Y+017400
X+016050Y+017400
X+017050Y+017400
X+018050Y+017400
X-010196Y+014212
X-009196Y+014212
X-008196Y+014212
X-007196Y+014212
X-006196Y+014212
X+014566Y+009366
X+014566Y+008366
X+014566Y+007366
X+014566Y+006366
X-012500Y+018500
X-012500Y+017500
X+017250Y+004750
X+018250Y+004750
X+006850Y+004750
X+005850Y+004750
T04
X+009393Y+012204
X+008393Y+012204
X+007393Y+012204
X+006393Y+012204
X+005393Y+012204
X+004393Y+012204
X+003393Y+012204
X+002393Y+012204
X+001393Y+012204
X+000393Y+012204
X-000606Y+012204
X-001606Y+012204
X-002606Y+012204
X-003606Y+012204
X-004606Y+012204
X-005606Y+012204
X-006606Y+012204
X-007606Y+012204
X-008606Y+012204
X-009606Y+012204
X-009606Y+006204
X-008606Y+006204
X-007606Y+006204
X-006606Y+006204
X-005606Y+006204
X-004606Y+006204
X-003606Y+006204
X-002606Y+006204
X-001606Y+006204
X-000606Y+006204
X+000393Y+006204
X+001393Y+006204
X+002393Y+006204
X+003393Y+006204
X+004393Y+006204
X+005393Y+006204
X+006393Y+006204
X+007393Y+006204
X+008393Y+006204
X+009393Y+006204
T05
X-015500Y+006500
X-015500Y+008862
X-014515Y+006500
X-016484Y+006500
X-014515Y+008862
X-016484Y+008862
T06
X-003600Y+017200
X-003600Y+015200
X-000100Y+017300
X-000100Y+018300
X-000100Y+014600
X-000100Y+015600
X+002400Y+014600
X+002400Y+015600
X+001200Y+016850
X+005200Y+016850
X+012401Y+005302
X+012401Y+006102
X+012401Y+006902
X-013181Y+011446
X-013181Y+015446
X-012135Y+011468
X-012135Y+015468
X+005200Y+018100
X+001200Y+018100
X+007300Y+016100
X+011300Y+016100
X+007300Y+017400
X+011300Y+017400
X-015480Y+017490
X-015480Y+016490
X-015480Y+014490
X-015480Y+012490
T07
X+016338Y+011811
X+017322Y+014173
X+018307Y+011811
M30
